<svg width="1080" height="1080" viewBox="0 0 1080 1080" fill="none" xmlns="http://www.w3.org/2000/svg">
<rect width="1080" height="1080" rx="50" fill="#2E2F2F"/>
<rect x="490" y="91" width="100" height="603" rx="24" fill="#929292"/>
<path fill-rule="evenodd" clip-rule="evenodd" d="M463 526.368L219.571 948C210.333 964 221.88 984 240.355 984H839.645C858.12 984 869.667 964 860.429 948L617 526.368V698C617 711.255 606.255 722 593 722H487C473.745 722 463 711.255 463 698V526.368Z" fill="#2E2F2F"/>
<path fill-rule="evenodd" clip-rule="evenodd" d="M463 526.368L219.571 948C210.333 964 221.88 984 240.355 984H839.645C858.12 984 869.667 964 860.429 948L617 526.368V698C617 711.255 606.255 722 593 722H487C473.745 722 463 711.255 463 698V526.368Z" fill="url(#paint0_linear_401_4)"/>
<defs>
<linearGradient id="paint0_linear_401_4" x1="540" y1="707.5" x2="540" y2="984" gradientUnits="userSpaceOnUse">
<stop stop-color="#BCBCBC" stop-opacity="0.34"/>
<stop offset="1" stop-color="#FE6E61" stop-opacity="0.57"/>
</linearGradient>
</defs>
</svg>
